<svg width="133" height="38" viewBox="0 0 133 38" fill="none" xmlns="http://www.w3.org/2000/svg">
<path d="M4.2 25.35H13.675V27H2.4V9.3H13.375V10.95H4.2V16.975H12.775V18.625H4.2V25.35ZM21.7693 27H19.9193L15.1693 15.3H17.1443L20.8693 25.15H20.9193L24.6443 15.3H26.5193L21.7693 27ZM37.7799 20.25C37.7799 19.1333 37.4466 18.2333 36.7799 17.55C36.1132 16.85 35.1799 16.5 33.9799 16.5C33.4465 16.5 32.9299 16.6083 32.4299 16.825C31.9299 17.025 31.4882 17.3 31.1049 17.65C30.7382 18 30.4382 18.4 30.2049 18.85C29.9882 19.3 29.8799 19.7667 29.8799 20.25H37.7799ZM29.8299 21.6C29.8799 22.1833 30.0215 22.7333 30.2549 23.25C30.4882 23.7667 30.7965 24.2167 31.1799 24.6C31.5632 24.9667 32.0049 25.2583 32.5049 25.475C33.0049 25.6917 33.5466 25.8 34.1299 25.8C35.0132 25.8 35.7715 25.6 36.4049 25.2C37.0549 24.7833 37.5465 24.3083 37.8799 23.775L39.1549 24.825C38.4549 25.7083 37.6799 26.3417 36.8299 26.725C35.9966 27.1083 35.0965 27.3 34.1299 27.3C33.2632 27.3 32.4549 27.15 31.7049 26.85C30.9715 26.5333 30.3382 26.1 29.8049 25.55C29.2715 25 28.8465 24.35 28.5299 23.6C28.2299 22.85 28.0799 22.0333 28.0799 21.15C28.0799 20.2667 28.2299 19.45 28.5299 18.7C28.8299 17.95 29.2465 17.3 29.7799 16.75C30.3132 16.2 30.9382 15.775 31.6549 15.475C32.3715 15.1583 33.1465 15 33.9799 15C34.8632 15 35.6549 15.1583 36.3549 15.475C37.0549 15.7917 37.6382 16.2167 38.1049 16.75C38.5882 17.2667 38.9549 17.8833 39.2049 18.6C39.4549 19.3 39.5799 20.05 39.5799 20.85V21.6H29.8299ZM44.1465 15.3C44.1798 15.6167 44.1965 15.9333 44.1965 16.25C44.2132 16.55 44.2215 16.8583 44.2215 17.175H44.2715C44.4548 16.8583 44.6882 16.5667 44.9715 16.3C45.2548 16.0333 45.5715 15.8083 45.9215 15.625C46.2715 15.425 46.6382 15.275 47.0215 15.175C47.4215 15.0583 47.8132 15 48.1965 15C49.6965 15 50.8048 15.4 51.5215 16.2C52.2382 16.9833 52.5965 18.1083 52.5965 19.575V27H50.9465V20.525C50.9465 19.225 50.7215 18.2333 50.2715 17.55C49.8215 16.85 48.9882 16.5 47.7715 16.5C47.6882 16.5 47.4548 16.5333 47.0715 16.6C46.6882 16.6667 46.2798 16.85 45.8465 17.15C45.4298 17.45 45.0548 17.9 44.7215 18.5C44.3882 19.1 44.2215 19.9333 44.2215 21V27H42.5715V17.875C42.5715 17.5583 42.5548 17.1583 42.5215 16.675C42.5048 16.1917 42.4798 15.7333 42.4465 15.3H44.1465ZM62.5131 16.8H59.1381V23.7C59.1381 24.1333 59.1798 24.4917 59.2631 24.775C59.3464 25.0417 59.4631 25.25 59.6131 25.4C59.7631 25.55 59.9381 25.6583 60.1381 25.725C60.3548 25.775 60.5881 25.8 60.8381 25.8C61.1214 25.8 61.4131 25.7583 61.7131 25.675C62.0131 25.5917 62.2881 25.4833 62.5381 25.35L62.6131 26.875C61.9964 27.1583 61.2548 27.3 60.3881 27.3C60.0714 27.3 59.7381 27.2583 59.3881 27.175C59.0548 27.0917 58.7464 26.9333 58.4631 26.7C58.1798 26.4667 57.9464 26.15 57.7631 25.75C57.5798 25.35 57.4881 24.825 57.4881 24.175V16.8H55.0131V15.3H57.4881V12H59.1381V15.3H62.5131V16.8Z" fill="#4A5E84"/>
<path d="M67.1639 25.35H70.6139C71.2639 25.35 71.8722 25.2833 72.4389 25.15C73.0055 25.0167 73.4972 24.8167 73.9139 24.55C74.3305 24.2667 74.6555 23.9167 74.8889 23.5C75.1389 23.0833 75.2639 22.5833 75.2639 22C75.2639 20.8333 74.8889 19.9667 74.1389 19.4C73.3889 18.8333 72.2889 18.55 70.8389 18.55H67.1639V25.35ZM67.1639 17.05H70.7889C71.2222 17.05 71.6472 17 72.0639 16.9C72.4972 16.7833 72.8805 16.6 73.2139 16.35C73.5639 16.1 73.8472 15.7833 74.0639 15.4C74.2805 15 74.3889 14.5167 74.3889 13.95C74.3889 13.7667 74.3472 13.5083 74.2639 13.175C74.1972 12.8417 74.0305 12.5083 73.7639 12.175C73.5139 11.8417 73.1389 11.5583 72.6389 11.325C72.1389 11.075 71.4639 10.95 70.6139 10.95H67.1639V17.05ZM65.3639 9.3H70.6389C71.3722 9.3 72.0805 9.375 72.7639 9.525C73.4472 9.675 74.0555 9.925 74.5889 10.275C75.1222 10.625 75.5472 11.0833 75.8639 11.65C76.1805 12.2167 76.3389 12.9167 76.3389 13.75C76.3389 14.7167 76.0639 15.55 75.5139 16.25C74.9805 16.9333 74.2139 17.3917 73.2139 17.625V17.675C74.4639 17.775 75.4389 18.2167 76.1389 19C76.8555 19.7667 77.2139 20.8 77.2139 22.1C77.2139 22.3833 77.1389 22.8 76.9889 23.35C76.8555 23.9 76.5639 24.45 76.1139 25C75.6639 25.5333 75.0139 26 74.1639 26.4C73.3139 26.8 72.1805 27 70.7639 27H65.3639V9.3ZM88.9609 27C88.9276 26.6833 88.9026 26.375 88.8859 26.075C88.8859 25.7583 88.8859 25.4417 88.8859 25.125H88.8359C88.6526 25.4417 88.4193 25.7333 88.1359 26C87.8526 26.2667 87.5359 26.5 87.1859 26.7C86.8359 26.8833 86.4609 27.025 86.0609 27.125C85.6776 27.2417 85.2943 27.3 84.9109 27.3C83.4109 27.3 82.3026 26.9083 81.5859 26.125C80.8693 25.325 80.5109 24.1917 80.5109 22.725V15.3H82.1609V21.775C82.1609 22.425 82.2109 23 82.3109 23.5C82.4109 24 82.5776 24.425 82.8109 24.775C83.0609 25.1083 83.3859 25.3667 83.7859 25.55C84.2026 25.7167 84.7193 25.8 85.3359 25.8C85.4193 25.8 85.6526 25.7667 86.0359 25.7C86.4193 25.6333 86.8193 25.45 87.2359 25.15C87.6693 24.85 88.0526 24.4 88.3859 23.8C88.7193 23.2 88.8859 22.3667 88.8859 21.3V15.3H90.5359V24.425C90.5359 24.7417 90.5443 25.1417 90.5609 25.625C90.5943 26.1083 90.6276 26.5667 90.6609 27H88.9609ZM126.585 24.975L130.16 15.3H132.16L126.31 30.05C125.96 30.95 125.51 31.6667 124.96 32.2C124.426 32.7333 123.651 33 122.635 33C122.385 33 122.126 32.9917 121.86 32.975C121.61 32.9583 121.36 32.9083 121.11 32.825L121.285 31.225C121.635 31.4083 122.051 31.5 122.535 31.5C123.118 31.5 123.576 31.3167 123.91 30.95C124.243 30.5833 124.535 30.0667 124.785 29.4L125.635 27.15L120.835 15.3H122.91L126.585 24.975Z" fill="#464646"/>
<path d="M100.494 10C97.4027 10 94.8735 12.55 94.8735 15.6667C94.8735 17.5404 95.7887 19.2083 97.1863 20.2416C94.7161 21.4769 93 24.0382 93 27H94.8735C94.8735 23.8607 97.3802 21.3333 100.494 21.3333C103.608 21.3333 106.114 23.8607 106.114 27H107.988C107.988 23.8607 110.494 21.3333 113.608 21.3333C116.722 21.3333 119.229 23.8607 119.229 27H121.102C121.102 24.0373 119.386 21.4769 116.916 20.2416C117.631 19.7161 118.213 19.028 118.615 18.2331C119.017 17.4382 119.227 16.5589 119.229 15.6667C119.229 12.55 116.699 10 113.608 10C110.517 10 107.988 12.55 107.988 15.6667C107.988 17.5404 108.903 19.2083 110.301 20.2416C108.932 20.92 107.799 22.0003 107.051 23.3403C106.303 22.0003 105.17 20.92 103.801 20.2416C104.517 19.7161 105.099 19.028 105.501 18.2331C105.903 17.4382 106.113 16.5589 106.114 15.6667C106.114 12.55 103.585 10 100.494 10ZM100.494 11.8889C102.576 11.8889 104.241 13.5672 104.241 15.6667C104.241 17.7662 102.576 19.4444 100.494 19.4444C98.4115 19.4444 96.7469 17.7662 96.7469 15.6667C96.7469 13.5672 98.4115 11.8889 100.494 11.8889ZM113.608 11.8889C115.691 11.8889 117.355 13.5672 117.355 15.6667C117.355 17.7662 115.691 19.4444 113.608 19.4444C111.526 19.4444 109.861 17.7662 109.861 15.6667C109.861 13.5672 111.526 11.8889 113.608 11.8889Z" fill="#4A5E84"/>
</svg>
